<?xml version="1.0" standalone="no"?>
<!DOCTYPE svg PUBLIC "-//W3C//DTD SVG 20010904//EN"
 "http://www.w3.org/TR/2001/REC-SVG-20010904/DTD/svg10.dtd">
<svg version="1.0" xmlns="http://www.w3.org/2000/svg"
 width="400.000000pt" height="473.000000pt" viewBox="0 0 400.000000 473.000000"
 preserveAspectRatio="xMidYMid meet">

<g transform="translate(0.000000,473.000000) scale(0.100000,-0.100000)"
fill="#000000" stroke="none">
<path d="M2246 4615 c-242 -40 -456 -124 -604 -237 -83 -64 -216 -210 -282
-311 -34 -50 -88 -146 -120 -212 -60 -121 -250 -597 -272 -680 l-12 -45 -51 6
c-47 6 -53 4 -81 -23 -16 -16 -42 -33 -57 -37 -28 -7 -67 -57 -67 -86 0 -8 8
1 18 20 9 19 31 42 48 51 18 8 46 27 64 42 34 29 75 34 102 13 14 -11 16 -19
7 -49 -20 -75 45 -115 137 -83 26 9 49 16 50 16 4 0 15 -67 15 -95 0 -61 -2
-70 -19 -95 -9 -14 -18 -34 -19 -45 -4 -26 -48 -65 -74 -65 -12 0 -32 -9 -46
-20 -30 -23 -87 -26 -123 -5 -14 8 -35 14 -47 15 -13 0 -30 11 -40 28 -10 15
-28 35 -40 45 -13 10 -23 28 -23 40 0 12 -8 31 -17 42 l-16 20 8 -20 c4 -11
11 -35 17 -52 5 -18 18 -38 29 -43 11 -6 24 -22 29 -35 6 -15 20 -27 37 -30
15 -4 40 -13 55 -21 38 -20 108 -18 138 6 14 11 34 20 45 20 32 1 55 25 86 86
30 59 39 128 25 195 l-8 35 60 27 c33 14 91 44 128 67 42 25 73 38 80 33 6 -4
46 -33 89 -63 131 -92 121 -79 106 -143 -15 -68 -83 -210 -151 -316 l-51 -79
-70 -12 c-39 -7 -68 -14 -66 -16 8 -8 157 20 157 29 0 6 18 38 40 73 63 100
122 223 145 301 l21 71 119 -74 c66 -40 126 -77 134 -82 18 -10 4 -66 -44
-182 l-31 -75 -153 -8 c-85 -4 -156 -5 -158 -3 -2 2 9 31 26 65 17 33 31 64
31 68 -1 4 -18 -26 -39 -67 -27 -51 -46 -77 -62 -82 -14 -5 -6 -5 21 -2 25 3
128 7 229 10 133 4 186 8 187 17 1 7 18 47 38 89 20 42 36 86 36 97 0 11 4 22
9 26 11 6 19 -47 24 -152 l3 -73 -50 0 c-79 0 -50 -7 59 -14 71 -4 95 -3 83 5
-12 6 -18 23 -18 47 0 20 -9 71 -20 112 -11 41 -20 76 -20 78 0 1 11 2 25 2
19 0 31 -11 55 -52 29 -51 64 -98 72 -98 2 0 -8 37 -23 83 -15 45 -30 98 -33
117 l-7 35 23 -39 c13 -21 41 -62 63 -90 23 -28 49 -72 58 -97 10 -25 33 -72
52 -103 26 -43 30 -56 17 -52 -48 15 -190 46 -207 45 -11 0 25 -11 80 -24 183
-42 296 -99 406 -203 l70 -65 -28 -23 c-37 -30 -46 -30 -99 7 -54 37 -217 115
-259 124 -16 4 8 -10 55 -29 47 -20 120 -57 162 -83 69 -41 76 -49 64 -62 -8
-9 -18 -28 -21 -43 -4 -16 -14 -28 -24 -28 -9 0 -34 -7 -56 -15 -22 -8 -61
-14 -87 -15 -103 -1 -233 -63 -307 -146 -91 -103 -140 -241 -160 -449 -28
-284 -46 -369 -112 -512 -55 -120 -115 -206 -201 -289 -84 -81 -169 -134 -277
-172 -67 -23 -91 -26 -201 -26 -141 0 -373 32 -465 64 -126 43 -259 158 -323
278 -41 76 -85 199 -113 313 -17 71 -23 124 -23 219 -1 117 -1 121 -10 60 -22
-158 48 -446 152 -625 72 -123 219 -234 358 -270 79 -20 359 -55 437 -55 169
1 340 75 474 205 46 45 83 76 83 69 0 -15 48 -74 61 -74 5 0 29 -16 55 -35 25
-19 51 -35 57 -35 7 -1 30 -9 52 -20 22 -11 53 -19 68 -20 35 0 45 -24 24 -59
-20 -34 -25 -107 -9 -123 7 -7 12 -41 12 -83 0 -108 13 -143 63 -166 45 -20
122 -25 147 -9 12 7 12 16 4 48 -9 33 -7 48 10 91 12 28 27 51 34 51 17 0 54
88 47 111 -4 11 2 26 14 38 17 17 25 19 47 11 14 -6 38 -10 52 -10 31 0 137
-8 197 -15 l40 -4 -40 10 c-22 5 -67 11 -100 14 -33 2 -80 7 -105 10 -25 3
-67 5 -94 5 -44 -1 -79 7 -181 42 -16 5 -50 14 -75 19 -24 5 -49 14 -54 19 -6
6 -21 10 -35 10 -15 0 -39 9 -56 20 -16 11 -38 20 -48 20 -19 0 -97 48 -97 60
0 4 -11 11 -25 14 -14 4 -32 17 -41 31 -19 29 -12 56 33 128 29 47 29 47 48
27 10 -11 23 -20 28 -20 6 0 25 -11 43 -25 18 -14 39 -25 46 -25 8 0 23 -7 34
-15 10 -8 32 -15 47 -15 16 0 42 -7 58 -15 16 -8 41 -21 57 -29 15 -8 45 -17
67 -21 22 -4 49 -12 60 -18 11 -6 56 -17 100 -24 44 -8 107 -19 140 -24 124
-21 248 -4 260 35 8 26 26 140 29 186 2 19 8 86 15 148 6 61 9 123 5 137 -6
25 -6 25 59 25 36 0 72 3 81 6 24 9 35 -28 46 -161 12 -132 14 -151 36 -293 5
-33 6 -34 47 -29 64 7 130 28 177 56 8 5 27 14 43 22 15 7 27 19 27 27 0 7 6
12 13 10 21 -8 37 -51 37 -104 0 -47 -3 -54 -32 -75 -18 -13 -50 -33 -71 -43
-20 -11 -35 -21 -32 -24 2 -3 16 3 29 12 14 9 31 16 39 16 7 0 27 15 45 33 26
27 32 41 32 78 0 58 -17 107 -39 114 -11 3 -21 25 -30 66 -19 92 -101 340
-122 371 -13 17 -19 43 -19 77 0 50 1 51 29 51 66 0 130 45 162 115 23 50 25
143 3 193 -9 20 -17 54 -19 74 -3 38 -39 108 -56 108 -13 0 -73 99 -140 231
-33 66 -78 140 -99 163 -22 24 -40 50 -40 58 0 21 -31 81 -49 94 -12 9 -6 13
30 18 24 4 56 9 70 12 23 4 27 0 38 -38 27 -89 94 -202 228 -380 206 -274 233
-334 233 -518 0 -163 -37 -287 -107 -356 -19 -19 -30 -34 -25 -34 17 0 77 51
79 68 1 9 14 51 29 92 48 132 45 344 -8 525 -23 81 -76 201 -84 193 -3 -4 3
-23 14 -45 23 -45 74 -183 67 -183 -2 0 -17 21 -32 48 -15 26 -82 119 -148
207 -66 88 -138 188 -158 222 -46 75 -90 181 -83 198 2 7 20 15 38 19 19 3 67
23 108 43 41 20 79 37 84 38 15 0 114 99 136 135 l22 35 -6 -50 -6 -50 45 50
c46 51 130 206 141 260 3 17 -10 -8 -29 -54 -33 -79 -92 -177 -123 -202 -12
-10 -14 -1 -14 58 0 38 -6 92 -14 121 -13 52 -13 54 19 118 37 73 69 210 63
269 -4 38 -5 38 -6 -10 -3 -66 -26 -160 -56 -229 -25 -56 -85 -150 -91 -144
-2 2 7 34 20 70 53 147 68 340 40 518 -15 94 -52 236 -60 228 -3 -2 4 -33 15
-69 20 -66 50 -245 50 -295 l-1 -29 -35 40 c-108 123 -301 462 -339 598 l-19
64 -31 -76 c-42 -105 -109 -202 -202 -294 -125 -122 -226 -191 -126 -84 70 74
186 237 170 237 -3 0 -16 -17 -28 -37 -35 -59 -143 -194 -191 -240 -84 -80
-286 -212 -301 -196 -12 11 16 229 40 313 9 30 28 81 44 112 16 31 26 64 23
72 -3 9 17 59 45 113 28 54 44 89 35 78 -32 -40 -97 -181 -130 -283 -95 -293
-93 -596 5 -817 11 -26 21 -52 21 -57 0 -22 -57 61 -98 141 -24 47 -41 77 -37
66 4 -11 11 -56 15 -101 9 -86 43 -223 67 -264 9 -15 12 -17 7 -5 -28 82 -53
181 -58 235 l-6 65 24 -46 c25 -47 112 -149 126 -149 5 0 -5 24 -21 53 -46 82
-87 222 -99 341 -7 59 -10 109 -8 110 1 1 35 20 73 40 39 21 103 62 143 91
l72 53 38 -15 c51 -20 111 -4 146 38 47 56 32 71 -43 44 -41 -14 -40 -13 52
78 94 91 165 189 202 277 10 25 22 49 25 53 4 4 17 -20 30 -55 62 -172 229
-454 338 -569 l34 -37 -11 -106 c-14 -122 -41 -237 -70 -295 -30 -57 -26 -60
19 -16 36 35 40 37 47 19 4 -10 8 -49 8 -85 0 -57 -4 -71 -29 -104 -17 -21
-44 -52 -60 -67 -47 -43 -201 -115 -296 -138 -193 -46 -459 -10 -665 90 -99
48 -136 78 -140 112 -2 15 -6 33 -11 40 -4 7 6 1 22 -13 38 -35 115 -89 126
-89 20 0 4 16 -32 33 -21 10 -66 47 -99 83 -65 69 -70 71 -46 21 16 -31 15
-31 -21 8 -44 47 -108 179 -128 261 -8 33 -15 49 -15 37 -1 -11 8 -50 19 -85
11 -34 20 -76 20 -92 0 -15 7 -55 16 -88 8 -33 13 -63 10 -66 -9 -8 -63 118
-85 197 -11 38 -23 96 -27 128 -4 32 -10 50 -12 40 -2 -10 -7 -17 -10 -15 -4
2 -35 18 -70 36 -35 18 -109 48 -165 67 -106 36 -277 69 -277 54 0 -5 10 -9
22 -9 12 0 49 -5 83 -11 59 -10 61 -11 57 -38 -4 -28 18 -84 38 -96 6 -4 2 10
-9 31 -24 45 -27 72 -7 80 12 5 150 -37 162 -49 2 -2 -3 -18 -12 -35 -19 -40
-7 -87 33 -123 l26 -24 -26 40 c-30 44 -34 81 -14 110 17 22 42 17 115 -26 50
-28 53 -32 38 -48 -26 -28 -20 -67 14 -92 37 -28 78 -139 51 -139 -5 0 -11 12
-13 28 -4 35 -41 39 -46 5 -2 -14 -10 -23 -20 -23 -42 0 -229 106 -443 251
-172 116 -239 199 -173 212 40 7 370 -12 472 -28 51 -9 109 -22 128 -30 32
-13 34 -17 36 -62 1 -26 5 29 9 122 5 106 15 206 28 265 11 52 19 96 17 98 -7
7 -44 -174 -51 -248 -7 -68 -11 -78 -43 -113 -27 -27 -41 -35 -57 -31 -11 4
-21 7 -22 9 -2 1 22 39 52 85 30 46 55 88 55 94 0 6 -26 -30 -59 -80 -32 -50
-62 -94 -67 -96 -5 -3 -39 -1 -76 4 -72 11 -74 15 -37 69 10 14 21 38 25 55 4
16 21 45 38 66 49 57 96 124 96 136 0 6 20 30 45 53 25 24 48 53 51 66 4 13
26 36 50 53 24 16 44 28 44 27 0 -1 -9 -26 -20 -55 -11 -29 -20 -60 -19 -70 0
-9 13 20 30 65 38 105 69 152 118 174 22 9 47 29 56 43 10 14 25 26 34 26 26
1 104 39 132 66 14 13 52 31 85 39 32 9 81 29 107 45 27 17 60 30 75 30 15 0
45 5 67 11 22 7 72 13 110 15 39 1 81 4 95 6 14 1 39 -1 55 -5 24 -6 26 -5 12
4 -10 6 -32 10 -50 10 -102 -3 -187 -10 -226 -20 -25 -7 -54 -11 -66 -9 -12 1
-40 -9 -61 -24 -42 -29 -115 -58 -146 -58 -11 0 -36 -14 -56 -31 -36 -32 -106
-68 -131 -69 -8 0 -33 -18 -57 -40 -24 -22 -49 -40 -55 -40 -6 0 -37 -28 -69
-63 -32 -34 -69 -68 -83 -76 -14 -7 -31 -27 -38 -43 -6 -16 -31 -46 -55 -67
-24 -21 -44 -46 -44 -54 0 -9 -13 -31 -28 -49 -16 -18 -38 -49 -50 -70 -12
-20 -28 -38 -36 -41 -7 -3 -18 -25 -24 -50 -7 -24 -18 -50 -26 -56 -8 -7 -17
-23 -20 -36 -6 -23 -7 -24 -99 -19 -115 7 -116 7 -116 41 0 15 -3 42 -6 59 -5
24 0 48 24 97 17 36 31 73 31 83 0 28 44 116 69 138 11 11 21 25 21 33 0 23
38 90 55 96 8 4 26 30 39 59 13 29 45 73 71 98 25 25 67 66 92 93 25 26 51 47
58 47 6 0 23 17 36 38 13 20 41 45 62 55 20 10 37 22 37 27 0 12 64 50 85 50
9 0 33 14 53 31 41 36 90 59 127 59 14 0 36 7 49 15 12 8 58 25 102 36 62 16
88 19 121 12 26 -6 48 -6 58 0 10 5 41 11 69 13 28 2 73 7 99 10 29 4 68 1 95
-7 26 -7 57 -12 69 -10 39 4 136 -19 157 -38 12 -10 35 -22 53 -26 37 -7 78
-45 104 -97 11 -21 23 -38 28 -38 23 0 71 -53 71 -78 0 -14 6 -33 14 -41 15
-18 28 -111 17 -129 -4 -7 -28 10 -66 48 -33 33 -68 60 -78 60 -21 0 -74 26
-99 47 -10 9 -24 13 -33 9 -9 -3 -35 1 -58 9 -23 8 -49 15 -57 14 -8 0 10 -9
40 -20 30 -10 62 -18 71 -17 8 2 28 -6 44 -16 16 -11 46 -24 67 -30 44 -14
147 -103 205 -177 23 -30 62 -92 87 -139 25 -47 46 -82 46 -77 0 17 -71 146
-112 202 -41 56 -44 65 -46 129 -1 42 -8 78 -17 92 -8 13 -15 31 -15 41 0 22
-26 54 -62 76 -15 10 -35 32 -44 50 -24 48 -53 75 -93 88 -20 7 -48 20 -63 30
-14 11 -41 22 -60 25 -18 4 -58 21 -88 39 -69 42 -212 100 -310 126 -100 27
-347 35 -474 14z m604 -1114 c0 -22 -45 -62 -80 -71 -39 -11 -90 -5 -90 10 0
4 28 19 63 33 95 39 107 42 107 28z m-850 -257 c0 -32 -2 -35 -22 -28 -13 3
-25 8 -27 10 -4 4 39 54 46 54 2 0 3 -16 3 -36z m29 -298 c1 -18 0 -18 -19 -1
-23 21 -26 45 -7 64 10 10 13 7 18 -16 4 -15 7 -37 8 -47z m6 -136 c-5 -8 -11
-8 -17 -2 -6 6 -7 16 -3 22 5 8 11 8 17 2 6 -6 7 -16 3 -22z m-101 -10 l25 -9
-15 -53 c-8 -29 -29 -81 -45 -115 -26 -55 -34 -63 -58 -63 l-28 0 23 48 c25
52 64 168 64 189 0 16 1 16 34 3z m75 -57 c-1 -34 -2 -35 -9 -13 -11 36 -11
50 0 50 6 0 10 -17 9 -37z m15 -90 c-7 -53 -24 -82 -24 -41 0 40 12 88 21 88
5 0 6 -21 3 -47z m331 -92 c43 -27 45 -30 26 -40 -30 -17 -38 -14 -60 23 -35
55 -30 58 34 17z m-290 -11 c3 -5 1 -10 -4 -10 -6 0 -11 5 -11 10 0 6 2 10 4
10 3 0 8 -4 11 -10z m400 -45 l30 -15 -27 4 c-15 1 -25 -1 -22 -5 3 -5 13 -9
23 -9 10 0 24 -6 30 -14 6 -8 31 -19 54 -25 24 -6 52 -20 62 -31 10 -11 26
-20 35 -20 19 0 172 -116 190 -144 10 -15 8 -22 -8 -39 l-20 -20 -28 22 c-14
11 -41 21 -58 21 -25 0 -39 9 -69 45 -45 53 -115 107 -209 159 -82 45 -96 60
-71 75 25 14 52 13 88 -4z m220 -60 c85 -17 111 -26 113 -40 7 -33 -14 -34
-98 -4 -47 17 -106 38 -132 47 -51 17 -67 39 -20 27 15 -4 77 -17 137 -30z
m261 -48 c12 -12 27 -39 34 -59 12 -33 12 -39 -3 -56 -9 -10 -17 -22 -17 -27
0 -5 -9 -19 -21 -31 -17 -18 -25 -20 -48 -11 -15 5 -35 23 -44 39 -16 28 -16
31 1 56 34 49 34 62 2 80 -16 9 -30 20 -30 25 0 4 24 7 53 7 41 0 57 -5 73
-23z m-11 -238 c21 -39 19 -82 -6 -113 -26 -33 -48 -34 -42 -2 5 23 -26 96
-55 128 -13 16 -13 18 9 26 34 13 77 -5 94 -39z m-375 -119 c8 -28 22 -58 32
-67 10 -9 18 -22 18 -28 0 -7 14 -29 30 -50 17 -21 30 -42 30 -47 0 -6 12 -24
26 -42 21 -24 25 -26 20 -9 -4 12 -2 24 4 28 6 4 10 -22 10 -78 0 -85 0 -85
-35 -116 -20 -17 -42 -31 -49 -31 -15 0 -136 125 -136 140 0 5 -11 20 -25 34
-14 14 -25 32 -25 41 0 9 -9 28 -19 43 -11 15 -22 48 -26 75 -6 46 -5 49 41
102 61 73 85 74 104 5z m469 -118 c-16 -3 -63 26 -113 70 -6 4 -2 16 9 28 18
20 18 19 70 -38 44 -48 50 -58 34 -60z m-88 37 c33 -22 88 -68 122 -101 l62
-61 -27 -8 c-15 -4 -39 -17 -54 -28 -17 -13 -41 -21 -66 -21 -40 0 -60 -14
-110 -78 -10 -12 -29 -22 -42 -22 -33 0 -76 -17 -76 -30 0 -7 9 -5 22 4 12 9
36 16 51 16 23 0 40 12 75 50 38 42 51 50 81 50 22 0 51 10 73 25 20 14 44 25
53 25 14 0 14 -3 -1 -32 -9 -18 -27 -41 -40 -51 -13 -10 -24 -24 -24 -31 0
-22 -40 -66 -78 -85 -27 -14 -59 -19 -120 -18 -79 0 -84 1 -93 24 -5 13 -9 76
-9 139 0 107 2 117 26 154 15 22 30 38 34 35 4 -3 16 -37 25 -77 10 -40 22
-80 27 -88 8 -13 9 -13 5 0 -40 148 -50 201 -38 213 13 12 34 -7 119 -108 l34
-40 -34 46 c-18 26 -46 63 -61 82 -27 34 -29 57 -6 57 6 0 37 -18 70 -41z
m-606 -89 c-36 -44 -65 -84 -65 -89 0 -23 -220 -216 -272 -239 -16 -6 -28 -16
-28 -21 0 -9 60 -41 78 -41 11 0 25 -30 18 -38 -3 -2 -32 5 -66 18 -59 22 -60
23 -60 61 0 21 5 61 11 89 10 47 14 52 61 76 28 14 80 54 117 88 130 124 165
151 221 169 50 17 47 4 -15 -73z m926 -10 c24 -11 51 -51 64 -97 11 -38 -13
-27 -68 31 -32 34 -67 60 -91 68 -22 7 -41 18 -43 24 -4 12 96 -6 138 -26z
m-37 -47 c45 -41 60 -84 59 -166 -1 -72 -17 -113 -60 -155 -45 -43 -65 -39
-77 17 -8 37 -7 45 8 53 10 5 27 31 38 56 24 57 18 148 -14 200 -27 44 -4 42
46 -5z m-245 -378 c1 -81 -6 -95 -46 -95 -34 0 -35 1 -29 31 3 17 6 64 6 104
0 71 1 74 28 83 26 8 27 7 34 -32 3 -23 7 -63 7 -91z m-86 108 c9 -5 8 -149
-2 -183 -6 -21 -14 -26 -50 -28 -39 -3 -42 -1 -36 17 3 11 8 62 10 113 2 51 4
94 4 96 1 4 63 -8 74 -15z m-921 -88 c34 -13 35 -17 41 -77 5 -59 4 -65 -22
-93 -15 -16 -40 -47 -56 -68 -15 -21 -30 -36 -32 -33 -2 2 0 30 6 62 5 33 13
96 16 142 4 45 8 82 10 82 1 0 18 -7 37 -15z m93 -44 c-4 -9 -9 -31 -12 -48
-7 -42 -19 -42 -27 -2 -12 63 -8 77 20 71 18 -3 23 -9 19 -21z m920 -156 l0
-70 -49 -8 c-27 -4 -72 -7 -100 -5 l-51 3 -3 67 -3 67 33 5 c48 8 108 13 143
12 l30 -1 0 -70z m-915 -795 c49 -25 151 -50 208 -50 48 0 50 -5 22 -60 -20
-40 -21 -40 -79 -40 -63 0 -103 10 -168 43 -41 21 -43 24 -43 68 0 40 5 59 17
59 2 0 21 -9 43 -20z"/>
<path d="M2833 1303 c-21 -4 -23 -10 -23 -59 l0 -54 58 0 c96 0 102 4 102 66
l0 54 -57 -1 c-32 -1 -68 -4 -80 -6z"/>
<path d="M2619 3953 c-73 -76 -145 -170 -137 -179 3 -2 19 18 37 46 18 27 66
86 108 130 41 44 73 80 71 80 -3 0 -38 -35 -79 -77z"/>
<path d="M3273 3900 c9 -14 32 -52 52 -85 19 -33 35 -55 35 -49 0 14 -67 125
-87 144 -15 13 -15 12 0 -10z"/>
<path d="M3635 3673 c4 -10 14 -37 22 -61 8 -24 17 -41 19 -39 6 5 -36 117
-43 117 -3 0 -2 -8 2 -17z"/>
<path d="M3682 3550 c0 -8 6 -31 13 -50 7 -19 13 -28 13 -20 0 8 -6 31 -13 50
-7 19 -13 28 -13 20z"/>
<path d="M3180 3459 c0 -32 53 -79 89 -79 43 0 45 12 8 47 -56 54 -97 67 -97
32z m68 -19 c48 -35 53 -50 17 -50 -29 0 -75 40 -75 65 0 22 12 19 58 -15z"/>
<path d="M3711 3444 c0 -11 3 -14 6 -6 3 7 2 16 -1 19 -3 4 -6 -2 -5 -13z"/>
<path d="M3722 3405 c0 -11 4 -33 8 -50 7 -27 8 -27 8 -5 0 14 -4 36 -8 50 -6
20 -8 21 -8 5z"/>
<path d="M3747 3245 c3 -44 7 -82 9 -84 7 -8 3 73 -6 119 -6 34 -7 25 -3 -35z"/>
<path d="M3681 3254 c0 -11 3 -14 6 -6 3 7 2 16 -1 19 -3 4 -6 -2 -5 -13z"/>
<path d="M1426 3221 c-9 -14 39 -66 98 -105 81 -54 80 -43 -1 13 -59 42 -83
66 -83 86 0 2 8 6 18 8 13 4 12 5 -5 6 -12 0 -24 -3 -27 -8z"/>
<path d="M2753 3223 c15 -2 37 -2 50 0 12 2 0 4 -28 4 -27 0 -38 -2 -22 -4z"/>
<path d="M3691 3199 c0 -14 -4 -55 -7 -90 -4 -47 -3 -60 5 -49 8 12 11 3 12
-35 1 -30 4 -38 6 -20 2 17 -1 73 -6 125 -4 52 -9 83 -10 69z"/>
<path d="M3173 3203 c9 -2 25 -2 35 0 9 3 1 5 -18 5 -19 0 -27 -2 -17 -5z"/>
<path d="M2484 3183 l-72 -4 3 -38 c1 -21 5 -44 9 -50 5 -7 66 -11 190 -11
l183 0 13 45 c7 25 10 48 6 52 -7 8 -233 12 -332 6z"/>
<path d="M3155 3118 c0 -24 5 -46 11 -50 6 -4 62 -10 126 -14 l115 -7 6 44 c3
24 5 44 4 45 -4 3 -208 24 -235 24 -25 0 -27 -3 -27 -42z"/>
<path d="M2282 3125 c0 -11 3 -29 8 -40 11 -25 11 1 0 35 -6 20 -8 21 -8 5z"/>
<path d="M2061 3094 c0 -11 3 -14 6 -6 3 7 2 16 -1 19 -3 4 -6 -2 -5 -13z"/>
<path d="M3748 2985 c-4 -38 -14 -90 -22 -115 l-14 -45 -2 35 c-2 29 -4 25
-10 -20 -4 -30 -10 -71 -14 -90 -4 -23 3 -13 20 30 32 80 56 191 52 239 -2 25
-5 15 -10 -34z"/>
<path d="M3672 3015 c0 -16 2 -22 5 -12 2 9 2 23 0 30 -3 6 -5 -1 -5 -18z"/>
<path d="M3661 2964 c0 -11 3 -14 6 -6 3 7 2 16 -1 19 -3 4 -6 -2 -5 -13z"/>
<path d="M692 2937 c-17 -47 -14 -59 4 -18 8 19 13 39 12 43 -2 5 -9 -6 -16
-25z"/>
<path d="M1770 2966 c0 -7 71 -49 75 -44 3 2 -13 15 -35 27 -22 12 -40 20 -40
17z"/>
<path d="M1556 2725 c-9 -26 -7 -32 5 -12 6 10 9 21 6 23 -2 3 -7 -2 -11 -11z"/>
<path d="M2926 2707 c11 -30 43 -41 64 -22 17 15 20 15 43 1 23 -15 26 -15 48
5 l24 21 -24 -16 c-23 -14 -26 -14 -43 1 -18 16 -21 16 -47 0 -26 -15 -29 -15
-50 6 -18 18 -21 18 -15 4z"/>
<path d="M3341 2494 c-1 -29 27 -120 55 -178 13 -27 22 -51 20 -53 -5 -6 -55
63 -97 135 -39 67 -53 79 -23 19 28 -55 105 -158 173 -232 92 -100 220 -263
260 -332 52 -88 74 -120 66 -98 -15 46 -118 196 -222 323 -124 151 -184 254
-213 364 -10 40 -19 64 -19 52z"/>
<path d="M1130 2474 c-234 -69 -425 -210 -656 -485 -133 -158 -231 -327 -248
-429 -3 -22 2 -13 13 22 55 169 184 351 401 568 196 196 306 264 526 324 49
14 80 25 69 25 -11 0 -58 -11 -105 -25z"/>
<path d="M2125 2211 c-39 -4 0 -6 110 -6 94 -1 197 -6 229 -13 33 -6 61 -10
63 -8 20 20 -284 40 -402 27z"/>
<path d="M2023 2193 c9 -2 23 -2 30 0 6 3 -1 5 -18 5 -16 0 -22 -2 -12 -5z"/>
<path d="M1968 2183 c6 -2 18 -2 25 0 6 3 1 5 -13 5 -14 0 -19 -2 -12 -5z"/>
<path d="M1895 2170 c-25 -11 1 -11 35 0 20 6 21 8 5 8 -11 0 -29 -3 -40 -8z"/>
<path d="M3806 1715 c38 -104 55 -205 52 -310 -3 -96 -7 -117 -31 -165 -15
-30 -36 -66 -48 -80 l-21 -25 7 25 c3 14 8 43 10 65 l4 40 -8 -40 c-13 -56
-30 -97 -48 -117 -9 -10 -11 -18 -6 -18 20 0 95 92 121 148 38 82 43 226 13
355 -12 51 -29 103 -37 117 -10 16 -13 18 -8 5z"/>
<path d="M3721 1715 c1 -19 18 -51 18 -35 0 8 -4 22 -9 30 -5 8 -9 11 -9 5z"/>
<path d="M3742 1640 c0 -14 2 -19 5 -12 2 6 2 18 0 25 -3 6 -5 1 -5 -13z"/>
<path d="M3758 1505 c2 -60 8 -114 13 -119 5 -6 6 27 3 75 -10 133 -22 165
-16 44z"/>
<path d="M212 1500 c0 -14 2 -19 5 -12 2 6 2 18 0 25 -3 6 -5 1 -5 -13z"/>
<path d="M3752 1360 c0 -14 2 -19 5 -12 2 6 2 18 0 25 -3 6 -5 1 -5 -13z"/>
<path d="M3783 1320 c0 -30 2 -43 4 -27 2 15 2 39 0 55 -2 15 -4 2 -4 -28z"/>
<path d="M3566 1309 c-10 -29 -29 -71 -43 -92 -14 -22 -20 -36 -14 -33 26 16
3 -45 -42 -112 -16 -24 -43 -53 -60 -64 l-32 -20 42 5 c103 12 238 120 298
239 19 39 35 78 34 87 0 9 -9 -6 -20 -32 -56 -138 -164 -243 -289 -282 -23 -7
-22 -4 13 35 37 40 87 131 87 158 0 7 11 40 26 73 14 34 24 68 22 76 -2 8 -11
-9 -22 -38z"/>
<path d="M2890 1058 c-1 -101 -2 -111 -24 -333 -9 -82 -21 -167 -26 -188 -13
-44 -58 -77 -105 -77 -16 0 -37 -4 -44 -9 -19 -12 67 -2 91 10 9 5 18 9 20 9
2 0 3 -20 4 -45 1 -31 7 -53 22 -68 11 -12 26 -42 32 -67 7 -25 21 -62 31 -82
l19 -38 76 0 c110 0 136 20 94 73 -24 30 -26 81 -5 121 18 34 20 97 3 115 -17
17 15 41 53 41 15 0 31 5 34 10 3 6 16 10 28 11 13 0 16 3 9 6 -8 3 -24 1 -35
-5 -55 -25 -167 -40 -204 -28 -28 9 -31 18 -53 176 -15 108 -18 169 -13 298 3
89 3 162 -1 162 -3 0 -6 -42 -6 -92z m190 -632 c0 -41 -2 -45 -32 -55 -37 -12
-184 -16 -210 -6 -16 6 -35 72 -23 83 3 3 43 5 88 4 45 -1 98 2 117 7 59 15
60 14 60 -33z"/>
</g>
</svg>
